<svg width="19" height="20" viewBox="0 0 19 20" fill="none" xmlns="http://www.w3.org/2000/svg">
<path d="M8.70703 1.6665H7.1237C3.16536 1.6665 1.58203 3.33317 1.58203 7.49984V12.4998C1.58203 16.6665 3.16536 18.3332 7.1237 18.3332H11.8737C15.832 18.3332 17.4154 16.6665 17.4154 12.4998V10.8332" stroke="#292D32" stroke-width="1.5" stroke-linecap="round" stroke-linejoin="round"/>
<path d="M12.6999 2.51688L6.46161 9.08354C6.22411 9.33354 5.98661 9.82521 5.93911 10.1835L5.5987 12.6919C5.47203 13.6002 6.08161 14.2335 6.94453 14.1085L9.32745 13.7502C9.65995 13.7002 10.127 13.4502 10.3724 13.2002L16.6108 6.63354C17.6874 5.50021 18.1941 4.18354 16.6108 2.51688C15.0274 0.850211 13.7766 1.38354 12.6999 2.51688Z" stroke="#292D32" stroke-width="1.5" stroke-miterlimit="10" stroke-linecap="round" stroke-linejoin="round"/>
<path d="M11.8047 3.4585C12.3351 5.45016 13.8155 7.0085 15.7155 7.57516" stroke="#292D32" stroke-width="1.5" stroke-miterlimit="10" stroke-linecap="round" stroke-linejoin="round"/>
</svg>
