<svg width="19" height="20" viewBox="0 0 19 20" fill="none" xmlns="http://www.w3.org/2000/svg">
<path d="M16.625 4.98356C13.9888 4.70856 11.3367 4.56689 8.6925 4.56689C7.125 4.56689 5.5575 4.65023 3.99 4.81689L2.375 4.98356" stroke="#292D32" stroke-width="1.5" stroke-linecap="round" stroke-linejoin="round"/>
<path d="M6.73047 4.1415L6.90464 3.04984C7.0313 2.25817 7.1263 1.6665 8.46422 1.6665H10.5384C11.8763 1.6665 11.9792 2.2915 12.098 3.05817L12.2721 4.1415" stroke="#292D32" stroke-width="1.5" stroke-linecap="round" stroke-linejoin="round"/>
<path d="M14.924 7.6167L14.4094 16.0084C14.3223 17.3167 14.251 18.3334 12.0423 18.3334H6.95979C4.75104 18.3334 4.67979 17.3167 4.59271 16.0084L4.07812 7.6167" stroke="#292D32" stroke-width="1.5" stroke-linecap="round" stroke-linejoin="round"/>
<path d="M8.17969 13.75H10.8159" stroke="#292D32" stroke-width="1.5" stroke-linecap="round" stroke-linejoin="round"/>
<path d="M7.51953 10.4165H11.4779" stroke="#292D32" stroke-width="1.5" stroke-linecap="round" stroke-linejoin="round"/>
</svg>
