<svg width="250" height="250" viewBox="0 0 250 250" fill="none" xmlns="http://www.w3.org/2000/svg">
<path d="M156.288 227.424L136.392 169.844H111.692L84 250H98.2375C100.562 245.178 104.217 241.106 108.781 238.255C113.344 235.405 118.63 233.892 124.025 233.892C129.42 233.892 134.706 235.405 139.269 238.255C143.833 241.106 147.488 245.178 149.813 250H164.083L156.288 227.424ZM133.263 218.226C127.209 216.72 120.874 216.72 114.821 218.226L110.746 219.258L119.913 192.267H128.458L137.375 219.258L133.263 218.226Z" fill="#0CB2D6"/>
<path d="M220.071 172.782L164.887 146.002L147.425 163.296L185.075 239.371L195.141 229.397C193.342 224.36 193.02 218.921 194.212 213.709C195.404 208.498 198.061 203.727 201.877 199.949C205.692 196.171 210.509 193.54 215.772 192.36C221.034 191.181 226.526 191.5 231.612 193.283L241.704 183.288L220.071 172.782ZM197.221 182.389C191.868 185.567 187.388 190.003 184.179 195.304L182.037 198.894L169.241 173.397L175.291 167.41L200.862 180.259L197.221 182.389Z" fill="#1C1C34"/>
<path d="M174.466 29.6403L147.425 84.2907L164.887 101.585L241.704 64.2982L231.633 54.3287C226.547 56.1104 221.055 56.4295 215.792 55.2491C210.53 54.0686 205.713 51.437 201.898 47.6585C198.083 43.88 195.427 39.1091 194.235 33.8977C193.044 28.6863 193.367 23.2473 195.166 18.21L185.075 8.21582L174.466 29.6403ZM184.166 52.2696C187.376 57.5709 191.855 62.007 197.208 65.1854L200.829 67.3063L175.083 79.9786L169.041 73.987L182.016 48.6631L184.166 52.2696Z" fill="#1C1C34"/>
<path d="M92.7543 22.5757L112.65 80.156H137.35L165.042 0H150.804C148.467 4.80734 144.81 8.86608 140.253 11.712C135.695 14.558 130.421 16.0762 125.033 16.0931C119.64 16.0814 114.36 14.5657 109.796 11.7195C105.232 8.87333 101.57 4.81177 99.2293 0L84.9585 0L92.7543 22.5757ZM115.779 31.7735C121.832 33.2797 128.168 33.2797 134.221 31.7735L138.296 30.7419L129.129 57.7329H120.583L111.667 30.7419L115.779 31.7735Z" fill="#1C1C34"/>
<path d="M227.204 91.8587L169.062 111.562V136.024L250 163.448V149.348C245.131 147.046 241.019 143.426 238.141 138.907C235.263 134.387 233.735 129.153 233.735 123.81C233.735 118.466 235.263 113.232 238.141 108.713C241.019 104.193 245.131 100.573 250 98.2712V84.1382L227.204 91.8587ZM217.917 114.661C216.396 120.656 216.396 126.93 217.917 132.925L218.958 136.961L191.704 127.883V119.419L218.958 110.589L217.917 114.661Z" fill="#1C1C34"/>
<path d="M75.5334 217.946L102.575 163.296L85.1126 146.002L8.2959 183.288L18.3667 193.258C23.4533 191.476 28.9454 191.157 34.2074 192.337C39.4695 193.518 44.2866 196.149 48.1015 199.928C51.9164 203.706 54.5732 208.477 55.7645 213.689C56.9559 218.9 56.633 224.339 54.8334 229.376L64.9251 239.371L75.5334 217.946ZM65.8334 195.317C62.6241 190.016 58.1447 185.579 52.7917 182.401L49.1667 180.28L74.9126 167.608L80.9584 173.599L67.9834 198.923L65.8334 195.317Z" fill="#1C1C34"/>
<path d="M29.9292 74.8041L85.1126 101.585L102.575 84.2907L64.9251 8.21582L54.8584 18.1894C56.6574 23.2269 56.9796 28.6659 55.7877 33.8772C54.5958 39.0884 51.9385 43.859 48.1231 47.6371C44.3078 51.4152 39.4904 54.0463 34.2282 55.2261C28.966 56.4059 23.474 56.0862 18.3876 54.304L8.2959 64.2982L29.9292 74.8041ZM52.7792 65.1977C58.1322 62.0194 62.6116 57.5833 65.8209 52.282L67.9626 48.6961L80.7584 74.1934L74.7084 80.1767L49.1376 67.327L52.7792 65.1977Z" fill="#1C1C34"/>
<path d="M22.7958 155.728L80.9375 136.024V111.562L0 84.1382V98.2382C4.85421 100.553 8.95253 104.175 11.8262 108.688C14.6999 113.201 16.233 118.425 16.25 123.76C16.2382 129.101 14.7077 134.331 11.8338 138.851C8.95985 143.37 4.85869 146.997 0 149.315L0 163.448L22.7958 155.728ZM32.0833 132.925C33.6041 126.93 33.6041 120.656 32.0833 114.661L31.0417 110.626L58.2958 119.704V128.167L31.0417 136.998L32.0833 132.925Z" fill="#1C1C34"/>
<path d="M133.445 160.351H112.5L117.97 145H128.217L133.445 160.351ZM133.5 160.351H133.445L133.5 160.279V160.351ZM135 158.37H134.984L135 158.35V158.37Z" fill="#0CB2D6"/>
</svg>
