<svg width="28" height="28" viewBox="0 0 28 28" fill="none" xmlns="http://www.w3.org/2000/svg">
<path d="M12.2955 25.5967C12.0272 25.5967 11.7705 25.4801 11.5955 25.2467L10.4171 23.6717C10.1721 23.345 9.8455 23.1584 9.4955 23.135C9.13383 23.1117 8.79547 23.2751 8.51547 23.5667C6.8238 25.3751 5.54048 25.2234 4.92215 24.9901C4.29215 24.7451 3.23047 23.94 3.23047 21.35V8.21338C3.23047 3.03338 4.7238 1.45837 9.61214 1.45837H18.4205C23.3088 1.45837 24.8022 3.03338 24.8022 8.21338V13.1834C24.8022 13.6617 24.4055 14.0584 23.9272 14.0584C23.4488 14.0584 23.0522 13.6617 23.0522 13.1834V8.21338C23.0522 4.00172 22.3172 3.20837 18.4205 3.20837H9.61214C5.71547 3.20837 4.98047 4.00172 4.98047 8.21338V21.35C4.98047 22.575 5.2838 23.2517 5.5638 23.3567C5.7738 23.4384 6.3455 23.3217 7.23216 22.3767C7.87383 21.7 8.71382 21.3384 9.58882 21.385C10.4522 21.4317 11.2688 21.8867 11.8172 22.6217L13.0071 24.1967C13.2988 24.5817 13.2171 25.13 12.8321 25.4217C12.6571 25.55 12.4705 25.5967 12.2955 25.5967Z" fill="#292D32"/>
<path d="M18.6654 9.04163H9.33203C8.8537 9.04163 8.45703 8.64496 8.45703 8.16663C8.45703 7.68829 8.8537 7.29163 9.33203 7.29163H18.6654C19.1437 7.29163 19.5404 7.68829 19.5404 8.16663C19.5404 8.64496 19.1437 9.04163 18.6654 9.04163Z" fill="#292D32"/>
<path d="M17.5 13.7084H10.5C10.0217 13.7084 9.625 13.3117 9.625 12.8334C9.625 12.355 10.0217 11.9584 10.5 11.9584H17.5C17.9783 11.9584 18.375 12.355 18.375 12.8334C18.375 13.3117 17.9783 13.7084 17.5 13.7084Z" fill="#292D32"/>
<path d="M17.2908 25.41C16.8475 25.41 16.4275 25.2467 16.1241 24.9433C15.7625 24.5817 15.5991 24.0567 15.6808 23.5083L15.9025 21.9333C15.9608 21.525 16.2058 21.035 16.4975 20.7433L20.6274 16.6133C21.1874 16.0533 21.7358 15.7617 22.3308 15.7033C23.0541 15.6333 23.7774 15.9367 24.4541 16.6133C25.1308 17.29 25.4341 18.0017 25.3641 18.7367C25.3058 19.32 25.0024 19.88 24.4541 20.44L20.3241 24.57C20.0325 24.8617 19.5425 25.1067 19.1341 25.165L17.5591 25.3867C17.4658 25.3983 17.3841 25.41 17.2908 25.41ZM22.5291 17.4417C22.5175 17.4417 22.5058 17.4417 22.4941 17.4417C22.3308 17.4533 22.1091 17.605 21.8641 17.85L17.7341 21.98C17.6991 22.015 17.6408 22.1317 17.6408 22.1783L17.4308 23.6367L18.8891 23.4267C18.9358 23.415 19.0524 23.3567 19.0874 23.3217L23.2175 19.1917C23.4625 18.935 23.6141 18.725 23.6258 18.5617C23.6491 18.3283 23.4158 18.0483 23.2175 17.85C23.0308 17.6633 22.7625 17.4417 22.5291 17.4417Z" fill="#292D32"/>
<path d="M23.2394 21.2916C23.1577 21.2916 23.076 21.2799 23.006 21.2566C21.466 20.8249 20.241 19.5999 19.8094 18.0599C19.681 17.5933 19.9494 17.1149 20.416 16.9749C20.8827 16.8466 21.361 17.1149 21.4894 17.5816C21.7577 18.5383 22.516 19.2966 23.4727 19.5649C23.9394 19.6932 24.2077 20.1833 24.0794 20.6499C23.9744 21.0349 23.6244 21.2916 23.2394 21.2916Z" fill="#292D32"/>
</svg>
