<svg width="16" height="15" viewBox="0 0 16 15" fill="none" xmlns="http://www.w3.org/2000/svg">
<path d="M13.625 3.73755C11.5438 3.5313 9.45 3.42505 7.3625 3.42505C6.125 3.42505 4.8875 3.48755 3.65 3.61255L2.375 3.73755" stroke="white" stroke-width="1.5" stroke-linecap="round" stroke-linejoin="round"/>
<path d="M5.8125 3.10625L5.95 2.2875C6.05 1.69375 6.125 1.25 7.18125 1.25H8.81875C9.875 1.25 9.95625 1.71875 10.05 2.29375L10.1875 3.10625" stroke="white" stroke-width="1.5" stroke-linecap="round" stroke-linejoin="round"/>
<path d="M12.2813 5.7124L11.875 12.0062C11.8063 12.9874 11.75 13.7499 10.0063 13.7499H5.99375C4.25 13.7499 4.19375 12.9874 4.125 12.0062L3.71875 5.7124" stroke="white" stroke-width="1.5" stroke-linecap="round" stroke-linejoin="round"/>
<path d="M6.95703 10.3125H9.03828" stroke="white" stroke-width="1.5" stroke-linecap="round" stroke-linejoin="round"/>
<path d="M6.4375 7.8125H9.5625" stroke="white" stroke-width="1.5" stroke-linecap="round" stroke-linejoin="round"/>
</svg>
